<?xml version="1.0" encoding="UTF-8"?><svg id="b" xmlns="http://www.w3.org/2000/svg" viewBox="0 0 15 14.13"><g id="c"><path d="m2.25,0v14h10.5V3.5l-3.5-3.5H2.25Z" fill="#e5e5e5"/><path d="m9.25,3.48V0l3.5,3.5-3.5-.02Z" fill="#fff" isolation="isolate" opacity=".65"/><path d="m2.25,0v14h10.5V3.5h-.01,0S9.26,0,9.26,0h0s0,0,0,0H2.25Zm.88.88h5.25v3.5h3.5v8.75H3.12V.88Zm6.12.36l2.26,2.26h-2.26V1.24Z" fill="#8f8f8f"/><path d="m14.3,13.63H.7c-.11,0-.2-.09-.2-.2v-5.58c0-.11.09-.2.2-.2h13.6c.11,0,.2.09.2.2v5.58c0,.11-.09.2-.2.2Z" fill="#fff"/><path d="m11.2,12.46l.79-.1c.02.11.06.19.11.23.05.05.11.07.18.07.13,0,.23-.06.3-.19.05-.1.09-.3.12-.6-.1.1-.19.17-.29.21s-.22.07-.35.07c-.26,0-.47-.09-.65-.27s-.27-.41-.27-.69c0-.19.04-.36.13-.52.09-.16.21-.27.37-.35.16-.08.36-.12.6-.12.29,0,.52.05.69.15s.31.25.42.47c.1.21.16.5.16.85,0,.52-.11.9-.33,1.14-.22.24-.52.36-.91.36-.23,0-.41-.03-.54-.08s-.24-.13-.33-.23-.15-.23-.2-.38Zm1.47-1.28c0-.15-.04-.28-.12-.36s-.17-.13-.29-.13c-.11,0-.19.04-.26.12s-.1.2-.1.36.04.28.11.37c.07.08.16.13.27.13s.21-.04.28-.12.11-.2.11-.35Zm.38-3.64c.16.07.27.17.35.29.08.12.11.26.11.41s-.03.28-.1.4c-.07.12-.15.22-.24.29-.1.07-.22.12-.36.15-.14.03-.3.05-.46.05-.3,0-.54-.04-.7-.11-.16-.07-.28-.18-.37-.32-.08-.14-.13-.29-.13-.47s.04-.31.12-.43c.08-.12.2-.21.36-.27,0,0-.02,0-.02-.01m.34.68c0,.13.04.23.12.31.08.08.17.12.26.12s.18-.04.26-.12.11-.18.11-.31-.04-.23-.11-.31c-.08-.08-.16-.12-.27-.12s-.19.04-.26.12c-.07.08-.11.18-.11.32ZM1.53,10.56c0-.54.1-.93.29-1.14.2-.22.5-.33.9-.33.19,0,.35.02.48.07.12.05.23.11.3.19s.14.16.19.24.08.18.11.29c.05.21.08.44.08.67,0,.52-.09.9-.26,1.14s-.48.36-.91.36c-.24,0-.44-.04-.59-.12s-.27-.19-.37-.34c-.07-.11-.12-.25-.16-.43s-.06-.39-.06-.61Zm.79,0c0,.36.03.61.1.75.06.13.16.2.28.2.08,0,.15-.03.21-.08s.1-.15.13-.27c.03-.12.04-.31.04-.57,0-.38-.03-.64-.1-.77-.06-.13-.16-.2-.29-.2s-.23.07-.29.2c-.06.13-.09.38-.09.74Zm4.07.05c0-.54.1-.93.29-1.14.2-.22.5-.33.9-.33.19,0,.35.02.48.07.12.05.23.11.3.19s.14.16.19.24.08.18.11.29c.05.21.08.44.08.67,0,.52-.09.9-.26,1.14s-.48.36-.91.36c-.24,0-.44-.04-.59-.12s-.27-.19-.37-.34c-.07-.11-.12-.25-.16-.43s-.06-.39-.06-.61Zm.79,0c0,.36.03.61.1.75.06.13.16.2.28.2.08,0,.15-.03.21-.08s.1-.15.13-.27c.03-.12.04-.31.04-.57,0-.38-.03-.64-.1-.77-.06-.13-.16-.2-.29-.2s-.23.07-.29.2c-.06.13-.09.38-.09.74Z" fill="#343a40"/><path d="m14.3,7.14H.7c-.39,0-.7.31-.7.7v5.58c0,.39.31.7.7.7h13.6c.39,0,.7-.31.7-.7v-5.58c0-.39-.32-.7-.7-.7Zm-4.8,1v4.98h-4v-4.98h4Zm-8.5,0h3.5v4.98H1v-4.98Zm13,4.98h-3.5v-4.98h3.5v4.98Z" fill="#72b2cb"/></g></svg>